<svg xmlns="http://www.w3.org/2000/svg" width="480pt" height="290pt" viewBox="0 0 480 290" version="1.1" xmlns:xlink="http://www.w3.org/1999/xlink">
  <g id="surface2" transform="matrix(0.9797588188253402,0,0,0.9797588188253402,9.776918757219708,10.04435929864064)">
    <path style="stroke:none;fill-rule:evenodd;fill:rgb(44.313725%,44.313725%,44.313725%);fill-opacity:1" d="M 253.550781 123.800781 L 241.351562 123.800781 L 241.351562 111.601562 L 253.550781 111.601562 L 253.550781 123.800781 M 253.550781 141.000000 L 241.351562 141.000000 L 241.351562 128.800781 L 253.550781 128.800781 L 253.550781 141.000000 M 236.398438 123.800781 L 224.199219 123.800781 L 224.199219 111.601562 L 236.398438 111.601562 L 236.398438 123.800781 M 236.398438 141.000000 L 224.199219 141.000000 L 224.199219 128.800781 L 236.398438 128.800781 L 236.398438 141.000000 M 282.300781 118.250000 L 261.898438 97.800781 L 243.101562 79.000000 L 242.949219 79.148438 C 242.851562 79.015625 241.800781 79.167969 239.800781 79.601562 C 237.800781 80.035156 235.398438 81.617188 232.601562 84.351562 C 233.765625 85.816406 233.816406 87.199219 232.750000 88.500000 L 227.398438 93.898438 C 226.035156 95.000000 224.601562 94.917969 223.101562 93.648438 L 214.800781 85.351562 C 213.535156 83.851562 213.449219 82.417969 214.550781 81.050781 L 219.949219 75.699219 C 221.183594 74.667969 222.515625 74.667969 223.949219 75.699219 C 225.050781 74.734375 226.285156 73.332031 227.648438 71.500000 C 229.015625 69.667969 229.949219 67.617188 230.449219 65.351562 C 230.484375 65.015625 232.167969 63.199219 235.500000 59.898438 C 238.832031 56.566406 243.667969 53.750000 250.000000 51.449219 C 256.367188 49.148438 264.050781 49.351562 273.050781 52.050781 L 272.300781 54.300781 C 271.898438 53.933594 269.367188 53.832031 264.699219 54.000000 C 260.000000 54.199219 255.515625 56.984375 251.250000 62.351562 C 251.082031 62.417969 250.832031 63.148438 250.500000 64.550781 C 250.199219 65.949219 250.867188 67.632812 252.500000 69.601562 L 288.250000 105.351562 L 288.250000 68.500000 C 288.050781 60.601562 285.316406 54.035156 280.050781 48.800781 C 274.816406 43.566406 268.250000 40.851562 260.351562 40.648438 L 216.148438 40.648438 C 208.250000 40.851562 201.683594 43.566406 196.449219 48.800781 C 191.214844 54.035156 188.500000 60.601562 188.300781 68.500000 L 188.300781 115.101562 C 188.300781 115.734375 188.316406 116.351562 188.351562 116.949219 L 213.300781 92.000000 L 210.898438 89.601562 L 212.050781 88.449219 L 219.648438 96.050781 L 218.449219 97.199219 L 216.050781 94.800781 L 180.500000 130.351562 L 175.949219 132.699219 L 188.449219 132.601562 L 188.449219 162.148438 L 288.148438 162.148438 L 288.148438 132.550781 L 296.699219 132.648438 L 282.300781 118.250000 "/>
  </g>
  <g id="surface4">
    <text style="fill:rgb(0,0,0)" font-family="Kranky" font-size="50" transform="matrix(0.9203831733853065,0,0,0.9203831733853065,92.74506173036258,193.52845122267513)" xml:space="preserve"><![CDATA[Marcel Builder]]></text>
  </g>
</svg>